<mxfile host="drawio-plugin" modified="2022-12-30T09:42:15.275Z" agent="5.0 (Android 6.0)" etag="3RBeNPqYz-CPf81LlU94" version="20.5.3" type="embed"><diagram id="tXYeOo7__t_p4TPciGzq" name="Page-1"><mxGraphModel dx="869" dy="339" grid="1" gridSize="10" guides="1" tooltips="1" connect="1" arrows="1" fold="1" page="1" pageScale="1" pageWidth="850" pageHeight="1100" math="0" shadow="0"><root><mxCell id="0"/><mxCell id="1" parent="0"/></root></mxGraphModel></diagram></mxfile>